<mxfile host="app.diagrams.net" modified="2023-11-12T19:18:25.150Z" agent="Mozilla/5.0 (Macintosh; Intel Mac OS X 10_15_7) AppleWebKit/537.36 (KHTML, like Gecko) Chrome/114.0.0.0 Safari/537.36" etag="4dvXgfgkoDniLbnznZRH" version="22.1.0" type="github">
  <diagram name="Page-1" id="2c0d36ab-eaac-3732-788b-9136903baeff">
    <mxGraphModel dx="1810" dy="1235" grid="1" gridSize="10" guides="1" tooltips="1" connect="1" arrows="1" fold="1" page="1" pageScale="1.5" pageWidth="1169" pageHeight="827" background="none" math="0" shadow="0">
      <root>
        <mxCell id="0" />
        <mxCell id="1" parent="0" />
        <mxCell id="shceIAnWN5Oym9eZlHVs-130" style="edgeStyle=orthogonalEdgeStyle;rounded=0;orthogonalLoop=1;jettySize=auto;html=1;exitX=0.5;exitY=1;exitDx=0;exitDy=0;entryX=0.5;entryY=0;entryDx=0;entryDy=0;" edge="1" parent="1" source="shceIAnWN5Oym9eZlHVs-125" target="shceIAnWN5Oym9eZlHVs-127">
          <mxGeometry relative="1" as="geometry" />
        </mxCell>
        <mxCell id="shceIAnWN5Oym9eZlHVs-133" style="edgeStyle=orthogonalEdgeStyle;rounded=0;orthogonalLoop=1;jettySize=auto;html=1;exitX=0.5;exitY=1;exitDx=0;exitDy=0;" edge="1" parent="1" source="shceIAnWN5Oym9eZlHVs-125" target="shceIAnWN5Oym9eZlHVs-128">
          <mxGeometry relative="1" as="geometry" />
        </mxCell>
        <mxCell id="shceIAnWN5Oym9eZlHVs-125" value="&lt;font style=&quot;font-size: 26px;&quot;&gt;Home&lt;/font&gt;" style="rounded=1;whiteSpace=wrap;html=1;" vertex="1" parent="1">
          <mxGeometry x="772" y="80" width="210" height="120" as="geometry" />
        </mxCell>
        <mxCell id="shceIAnWN5Oym9eZlHVs-126" value="&lt;font style=&quot;font-size: 26px;&quot;&gt;About&lt;/font&gt;" style="rounded=1;whiteSpace=wrap;html=1;" vertex="1" parent="1">
          <mxGeometry x="160" y="320" width="210" height="120" as="geometry" />
        </mxCell>
        <mxCell id="shceIAnWN5Oym9eZlHVs-127" value="&lt;font style=&quot;font-size: 26px;&quot;&gt;Gallery&lt;br&gt;&lt;/font&gt;" style="rounded=1;whiteSpace=wrap;html=1;" vertex="1" parent="1">
          <mxGeometry x="771.75" y="320" width="210" height="120" as="geometry" />
        </mxCell>
        <mxCell id="shceIAnWN5Oym9eZlHVs-128" value="&lt;font style=&quot;font-size: 26px;&quot;&gt;Projects&lt;br&gt;&lt;/font&gt;" style="rounded=1;whiteSpace=wrap;html=1;" vertex="1" parent="1">
          <mxGeometry x="1380" y="320" width="210" height="120" as="geometry" />
        </mxCell>
        <mxCell id="shceIAnWN5Oym9eZlHVs-131" style="edgeStyle=orthogonalEdgeStyle;rounded=0;orthogonalLoop=1;jettySize=auto;html=1;exitX=0.5;exitY=1;exitDx=0;exitDy=0;entryX=0.389;entryY=0;entryDx=0;entryDy=0;entryPerimeter=0;" edge="1" parent="1" source="shceIAnWN5Oym9eZlHVs-125" target="shceIAnWN5Oym9eZlHVs-126">
          <mxGeometry relative="1" as="geometry" />
        </mxCell>
      </root>
    </mxGraphModel>
  </diagram>
</mxfile>
